#Comment line ignore any data following # character 
#Hierarchical Translation and Rotation (.htr) file 
[Header]	
#Header keywords are followed by a single value 
FileType HTR		#Single word string
DataType HTRS		#Translation followed by rotation and scale data
FileVersion 1		#integer
NumSegments 84		#integer
NumFrames 2		#integer
DataFrameRate 30		#integer, data frame rate in this file
EulerRotationOrder ZYX
CalibrationUnits mm
RotationUnits Degrees
GlobalAxisofGravity Y
BoneLengthAxis Y
ScaleFactor 1.00
[SegmentNames&Hierarchy]
#CHILD	PARENT
MASTER GLOBAL
root MASTER
chest root
L_mid_tent01 root
R_mid_tent01 root
spine01 root
Bip01_Neck chest
L_humerus chest
R_humerus chest
weapon_bone chest
Bip01_Head Bip01_Neck
eye_left_bone Bip01_Head
eye_right_bone Bip01_Head
L_forearm L_humerus
L_front_hand L_forearm
L_weapon_bone L_forearm
L_front_hand01_01 L_front_hand
L_front_hand02_01 L_front_hand
L_front_hand03_01 L_front_hand
L_front_hand01_02 L_front_hand01_01
L_front_hand02_02 L_front_hand02_01
L_front_hand03_02 L_front_hand03_01
R_forearm R_humerus
R_front_hand R_forearm
R_weapon_bone R_forearm
R_front_hand01_01 R_front_hand
R_front_hand02_01 R_front_hand
R_front_hand03_01 R_front_hand
R_front_hand01_02 R_front_hand01_01
R_front_hand02_02 R_front_hand02_01
R_front_hand03_02 R_front_hand03_01
null_rope01_connect L_mid_tent01
Rope1_Seg01 null_rope01_connect
Rope1_Seg02 Rope1_Seg01
Rope1_Seg03 Rope1_Seg02
Rope1_Seg04 Rope1_Seg03
Rope1_Seg05 Rope1_Seg04
Rope1_Seg06 Rope1_Seg05
Rope1_Seg07 Rope1_Seg06
Rope1_Seg09 Rope1_Seg07
L_mid_hand01 Rope1_Seg09
L_mid_hand02 Rope1_Seg09
L_mid_hand03 Rope1_Seg09
null_rope02_connect R_mid_tent01
Rope2_Seg01 null_rope02_connect
Rope2_Seg02 Rope2_Seg01
Rope2_Seg03 Rope2_Seg02
Rope2_Seg04 Rope2_Seg03
Rope2_Seg05 Rope2_Seg04
Rope2_Seg06 Rope2_Seg05
Rope2_Seg07 Rope2_Seg06
Rope2_Seg09 Rope2_Seg07
R_mid_hand01 Rope2_Seg09
R_mid_hand02 Rope2_Seg09
R_mid_hand03 Rope2_Seg09
spine02 spine01
spine03 spine02
pelvis spine03
null_rope03_connect pelvis
null_rope04_connect pelvis
Rope3_Seg01 null_rope03_connect
Rope3_Seg02 Rope3_Seg01
Rope3_Seg03 Rope3_Seg02
Rope3_Seg04 Rope3_Seg03
Rope3_Seg05 Rope3_Seg04
Rope3_Seg06 Rope3_Seg05
Rope3_Seg07 Rope3_Seg06
Rope3_Seg08 Rope3_Seg07
Rope3_Seg09 Rope3_Seg08
R_rear_hand01 Rope3_Seg09
R_rear_hand02 Rope3_Seg09
R_rear_hand03 Rope3_Seg09
Rope4_Seg01 null_rope04_connect
Rope4_Seg02 Rope4_Seg01
Rope4_Seg03 Rope4_Seg02
Rope4_Seg04 Rope4_Seg03
Rope4_Seg05 Rope4_Seg04
Rope4_Seg06 Rope4_Seg05
Rope4_Seg07 Rope4_Seg06
Rope4_Seg08 Rope4_Seg07
Rope4_Seg09 Rope4_Seg08
L_rear_hand01 Rope4_Seg09
L_rear_hand02 Rope4_Seg09
L_rear_hand03 Rope4_Seg09
[BasePosition]
#SegmentName Tx, Ty, Tz, Rx, Ry, Rz, BoneLength
MASTER 0.000000 0.000000 0.000000 -90.000000 0.000000 0.000000 10.000000 
root 0.000000 0.000000 0.000000 0.000000 0.000000 0.000000 10.000000 
chest 0.000000 0.000000 0.000000 0.000000 0.000000 0.000000 10.000000 
L_mid_tent01 0.000000 0.000000 0.000000 0.000000 0.000000 0.000000 10.000000 
R_mid_tent01 0.000000 0.000000 0.000000 0.000000 0.000000 0.000000 10.000000 
spine01 0.000000 0.000000 0.000000 0.000000 0.000000 0.000000 10.000000 
Bip01_Neck 0.000000 0.000000 0.000000 0.000000 0.000000 0.000000 10.000000 
L_humerus 0.000000 0.000000 0.000000 0.000000 0.000000 0.000000 10.000000 
R_humerus 0.000000 0.000000 0.000000 0.000000 0.000000 0.000000 10.000000 
weapon_bone 0.000000 0.000000 0.000000 0.000000 0.000000 0.000000 10.000000 
Bip01_Head 0.000000 0.000000 0.000000 0.000000 0.000000 0.000000 10.000000 
eye_left_bone 0.000000 0.000000 0.000000 0.000000 0.000000 0.000000 10.000000 
eye_right_bone 0.000000 0.000000 0.000000 0.000000 0.000000 0.000000 10.000000 
L_forearm 0.000000 0.000000 0.000000 0.000000 0.000000 0.000000 10.000000 
L_front_hand 0.000000 0.000000 0.000000 0.000000 0.000000 0.000000 10.000000 
L_weapon_bone 0.000000 0.000000 0.000000 0.000000 0.000000 0.000000 10.000000 
L_front_hand01_01 0.000000 0.000000 0.000000 0.000000 0.000000 0.000000 10.000000 
L_front_hand02_01 0.000000 0.000000 0.000000 0.000000 0.000000 0.000000 10.000000 
L_front_hand03_01 0.000000 0.000000 0.000000 0.000000 0.000000 0.000000 10.000000 
L_front_hand01_02 0.000000 0.000000 0.000000 0.000000 0.000000 0.000000 10.000000 
L_front_hand02_02 0.000000 0.000000 0.000000 0.000000 0.000000 0.000000 10.000000 
L_front_hand03_02 0.000000 0.000000 0.000000 0.000000 0.000000 0.000000 10.000000 
R_forearm 0.000000 0.000000 0.000000 0.000000 0.000000 0.000000 10.000000 
R_front_hand 0.000000 0.000000 0.000000 0.000000 0.000000 0.000000 10.000000 
R_weapon_bone 0.000000 0.000000 0.000000 0.000000 0.000000 0.000000 10.000000 
R_front_hand01_01 0.000000 0.000000 0.000000 0.000000 0.000000 0.000000 10.000000 
R_front_hand02_01 0.000000 0.000000 0.000000 0.000000 0.000000 0.000000 10.000000 
R_front_hand03_01 0.000000 0.000000 0.000000 0.000000 0.000000 0.000000 10.000000 
R_front_hand01_02 0.000000 0.000000 0.000000 0.000000 0.000000 0.000000 10.000000 
R_front_hand02_02 0.000000 0.000000 0.000000 0.000000 0.000000 0.000000 10.000000 
R_front_hand03_02 0.000000 0.000000 0.000000 0.000000 0.000000 0.000000 10.000000 
null_rope01_connect 0.000000 0.000000 0.000000 0.000000 0.000000 0.000000 10.000000 
Rope1_Seg01 0.000000 0.000000 0.000000 0.000000 0.000000 0.000000 10.000000 
Rope1_Seg02 0.000000 0.000000 0.000000 0.000000 0.000000 0.000000 10.000000 
Rope1_Seg03 0.000000 0.000000 0.000000 0.000000 0.000000 0.000000 10.000000 
Rope1_Seg04 0.000000 0.000000 0.000000 0.000000 0.000000 0.000000 10.000000 
Rope1_Seg05 0.000000 0.000000 0.000000 0.000000 0.000000 0.000000 10.000000 
Rope1_Seg06 0.000000 0.000000 0.000000 0.000000 0.000000 0.000000 10.000000 
Rope1_Seg07 0.000000 0.000000 0.000000 0.000000 0.000000 0.000000 10.000000 
Rope1_Seg09 0.000000 0.000000 0.000000 0.000000 0.000000 0.000000 10.000000 
L_mid_hand01 0.000000 0.000000 0.000000 0.000000 0.000000 0.000000 10.000000 
L_mid_hand02 0.000000 0.000000 0.000000 0.000000 0.000000 0.000000 10.000000 
L_mid_hand03 0.000000 0.000000 0.000000 0.000000 0.000000 0.000000 10.000000 
null_rope02_connect 0.000000 0.000000 0.000000 0.000000 0.000000 0.000000 10.000000 
Rope2_Seg01 0.000000 0.000000 0.000000 0.000000 0.000000 0.000000 10.000000 
Rope2_Seg02 0.000000 0.000000 0.000000 0.000000 0.000000 0.000000 10.000000 
Rope2_Seg03 0.000000 0.000000 0.000000 0.000000 0.000000 0.000000 10.000000 
Rope2_Seg04 0.000000 0.000000 0.000000 0.000000 0.000000 0.000000 10.000000 
Rope2_Seg05 0.000000 0.000000 0.000000 0.000000 0.000000 0.000000 10.000000 
Rope2_Seg06 0.000000 0.000000 0.000000 0.000000 0.000000 0.000000 10.000000 
Rope2_Seg07 0.000000 0.000000 0.000000 0.000000 0.000000 0.000000 10.000000 
Rope2_Seg09 0.000000 0.000000 0.000000 0.000000 0.000000 0.000000 10.000000 
R_mid_hand01 0.000000 0.000000 0.000000 0.000000 0.000000 0.000000 10.000000 
R_mid_hand02 0.000000 0.000000 0.000000 0.000000 0.000000 0.000000 10.000000 
R_mid_hand03 0.000000 0.000000 0.000000 0.000000 0.000000 0.000000 10.000000 
spine02 0.000000 0.000000 0.000000 0.000000 0.000000 0.000000 10.000000 
spine03 0.000000 0.000000 0.000000 0.000000 0.000000 0.000000 10.000000 
pelvis 0.000000 0.000000 0.000000 0.000000 0.000000 0.000000 10.000000 
null_rope03_connect 0.000000 0.000000 0.000000 0.000000 0.000000 0.000000 10.000000 
null_rope04_connect 0.000000 0.000000 0.000000 0.000000 0.000000 0.000000 10.000000 
Rope3_Seg01 0.000000 0.000000 0.000000 0.000000 0.000000 0.000000 10.000000 
Rope3_Seg02 0.000000 0.000000 0.000000 0.000000 0.000000 0.000000 10.000000 
Rope3_Seg03 0.000000 0.000000 0.000000 0.000000 0.000000 0.000000 10.000000 
Rope3_Seg04 0.000000 0.000000 0.000000 0.000000 0.000000 0.000000 10.000000 
Rope3_Seg05 0.000000 0.000000 0.000000 0.000000 0.000000 0.000000 10.000000 
Rope3_Seg06 0.000000 0.000000 0.000000 0.000000 0.000000 0.000000 10.000000 
Rope3_Seg07 0.000000 0.000000 0.000000 0.000000 0.000000 0.000000 10.000000 
Rope3_Seg08 0.000000 0.000000 0.000000 0.000000 0.000000 0.000000 10.000000 
Rope3_Seg09 0.000000 0.000000 0.000000 0.000000 0.000000 0.000000 10.000000 
R_rear_hand01 0.000000 0.000000 0.000000 0.000000 0.000000 0.000000 10.000000 
R_rear_hand02 0.000000 0.000000 0.000000 0.000000 0.000000 0.000000 10.000000 
R_rear_hand03 0.000000 0.000000 0.000000 0.000000 0.000000 0.000000 10.000000 
Rope4_Seg01 0.000000 0.000000 0.000000 0.000000 0.000000 0.000000 10.000000 
Rope4_Seg02 0.000000 0.000000 0.000000 0.000000 0.000000 0.000000 10.000000 
Rope4_Seg03 0.000000 0.000000 0.000000 0.000000 0.000000 0.000000 10.000000 
Rope4_Seg04 0.000000 0.000000 0.000000 0.000000 0.000000 0.000000 10.000000 
Rope4_Seg05 0.000000 0.000000 0.000000 0.000000 0.000000 0.000000 10.000000 
Rope4_Seg06 0.000000 0.000000 0.000000 0.000000 0.000000 0.000000 10.000000 
Rope4_Seg07 0.000000 0.000000 0.000000 0.000000 0.000000 0.000000 10.000000 
Rope4_Seg08 0.000000 0.000000 0.000000 0.000000 0.000000 0.000000 10.000000 
Rope4_Seg09 0.000000 0.000000 0.000000 0.000000 0.000000 0.000000 10.000000 
L_rear_hand01 0.000000 0.000000 0.000000 0.000000 0.000000 0.000000 10.000000 
L_rear_hand02 0.000000 0.000000 0.000000 0.000000 0.000000 0.000000 10.000000 
L_rear_hand03 0.000000 0.000000 0.000000 0.000000 0.000000 0.000000 10.000000 
#Beginning of Data. Separated by tabs
#Fr	Tx	Ty	Tz	Rx	Ry	Rz	SF
[MASTER]
5 0.000000 0.000000 0.000000 0.001660 0.001660 0.001660 0.000000
6 0.000000 0.000000 0.000000 0.001660 0.001660 0.001660 0.000000
[root]
5 -16.502295 -57.869556 1496.454224 -93.100479 -19.618824 -92.336128 1497.663696
6 -16.502295 -55.314747 1494.625244 -92.505623 -18.844126 -92.324455 1495.739502
[chest]
5 -84.512650 -34.090519 0.000000 -9.001575 -0.542967 152.000031 91.129311
6 -84.512650 -34.090519 0.000000 -8.348072 -0.213637 154.950882 91.129311
[L_mid_tent01]
5 27.299246 22.178274 -249.918411 -0.478570 12.791238 69.451340 252.381332
6 27.299240 22.178312 -249.918411 -2.000525 21.339958 67.299889 252.381332
[R_mid_tent01]
5 23.228794 24.509907 226.238495 168.615723 -25.707466 68.416115 228.744751
6 23.228794 24.509907 226.238495 165.420898 -25.844812 75.475327 228.744751
[spine01]
5 -0.361383 -0.195265 0.000000 0.001895 0.001386 17.642614 0.410763
6 -0.361383 -0.195265 0.000000 0.001897 0.001382 17.852558 0.410763
[Bip01_Neck]
5 165.484543 71.581718 0.000119 176.643677 -1.657967 43.431911 180.302734
6 165.484543 71.581718 0.000119 176.643677 -1.657967 43.431911 180.302734
[L_humerus]
5 -13.983130 -135.272980 -120.471481 173.119827 17.476223 -85.686356 181.680161
6 -13.983130 -135.272980 -120.471481 173.077194 8.855220 -84.986877 181.680161
[R_humerus]
5 -13.983309 -135.273102 125.287651 -178.092392 -15.788541 -79.519638 184.909012
6 -13.983309 -135.273102 125.287651 -177.540085 -6.550430 -79.914688 184.909012
[weapon_bone]
5 235.964890 -300.705902 0.000000 0.000000 -89.951546 -128.212341 382.234833
6 235.964890 -300.705902 0.000000 0.000000 -89.951546 -128.212341 382.234833
[Bip01_Head]
5 213.444290 185.715561 11.776927 4.962491 2.797846 -43.898750 283.173859
6 213.444275 185.715561 11.776928 4.962490 2.797846 -43.898750 283.173828
[eye_left_bone]
5 -24.626970 125.451866 -64.772606 0.000000 -90.000000 -99.840431 143.318359
6 -24.626970 125.451866 -64.772606 0.000000 -90.000000 -99.840431 143.318359
[eye_right_bone]
5 -24.626970 125.451866 64.327362 0.000000 -89.972023 80.156380 143.117676
6 -24.626970 125.451866 64.327362 0.000000 -89.965736 80.156380 143.117676
[L_forearm]
5 322.776093 0.000000 -0.000119 0.000362 -0.002319 -107.751122 322.776093
6 322.776093 0.000000 -0.000119 0.000398 -0.002313 -109.510841 322.776093
[L_front_hand]
5 241.149185 -0.042021 -3.300071 172.204529 -2.116999 -32.428677 241.171753
6 241.149185 -0.042021 -3.300071 169.048264 -2.224681 -32.037395 241.171753
[L_weapon_bone]
5 156.183838 0.000000 0.000000 0.000014 0.000007 0.000001 156.183838
6 156.183838 0.000000 0.000000 0.000014 0.000007 0.000001 156.183838
[L_front_hand01_01]
5 86.095154 20.947098 -0.655860 -0.366594 -0.477154 75.385574 88.609184
6 86.095154 20.947098 -0.655860 -0.366594 -0.477154 75.385574 88.609184
[L_front_hand02_01]
5 86.935165 -11.437475 24.513514 154.399811 -59.883835 -61.369587 91.046425
6 86.935165 -11.437475 24.513514 154.399811 -59.883835 -61.369587 91.046425
[L_front_hand03_01]
5 86.637497 -14.123976 -20.424902 -153.913849 58.118122 -62.702866 90.126129
6 86.637497 -14.123976 -20.424902 -153.913849 58.118107 -62.702850 90.126129
[L_front_hand01_02]
5 71.020905 -0.000179 0.000030 0.000334 -0.002323 -106.379700 71.020905
6 71.020905 -0.000179 0.000030 0.000334 -0.002323 -106.379684 71.020905
[L_front_hand02_02]
5 71.020927 -0.000119 0.000060 0.000334 -0.002323 -106.379700 71.020927
6 71.020927 -0.000119 0.000060 0.000334 -0.002323 -106.379684 71.020927
[L_front_hand03_02]
5 71.020905 -0.000060 0.000060 0.000334 -0.002323 -106.379700 71.020905
6 71.020905 -0.000060 0.000060 0.000334 -0.002323 -106.379684 71.020905
[R_forearm]
5 322.776428 -0.000060 0.000030 0.204037 0.055249 -106.373260 322.776428
6 322.776428 -0.000060 0.000030 0.206168 0.062044 -107.946671 322.776428
[R_front_hand]
5 238.847015 -0.006795 2.210259 7.765160 -10.385341 -32.229801 238.857239
6 238.847015 -0.006795 2.210259 10.826392 -10.259992 -31.772152 238.857239
[R_weapon_bone]
5 155.664093 0.002503 -0.000030 0.003487 0.001180 -90.988930 155.664078
6 155.664093 0.002503 -0.000030 0.003487 0.001180 -90.988930 155.664078
[R_front_hand01_01]
5 87.624611 14.231146 22.918642 -154.633484 -59.950619 61.746037 91.683487
6 87.624611 14.231146 22.918642 -154.633484 -59.950607 61.746033 91.683487
[R_front_hand02_01]
5 89.356956 14.367283 -19.491137 154.602661 58.302849 63.744389 92.579636
6 89.356956 14.367283 -19.491137 154.602661 58.302856 63.744389 92.579636
[R_front_hand03_01]
5 87.286232 -22.307278 -0.143439 0.162155 -0.423168 -75.767921 90.091743
6 87.286232 -22.307278 -0.143439 0.162155 -0.423168 -75.767921 90.091743
[R_front_hand01_02]
5 71.020905 0.000060 0.000119 0.002323 -0.000334 106.381706 71.020905
6 71.020905 0.000060 0.000119 0.002323 -0.000334 106.381714 71.020905
[R_front_hand02_02]
5 71.020844 -0.000030 -0.000119 0.002323 -0.000334 106.381706 71.020836
6 71.020844 -0.000030 -0.000119 0.002323 -0.000334 106.381714 71.020836
[R_front_hand03_02]
5 71.020905 0.000000 0.000030 0.002323 -0.000334 106.381706 71.020905
6 71.020905 0.000000 0.000030 0.002323 -0.000334 106.381714 71.020905
[null_rope01_connect]
5 328.732483 0.000000 -0.000238 -139.226898 -72.795830 179.182922 328.732483
6 328.732483 0.000000 -0.000238 -141.540985 -64.788086 -177.560013 328.732483
[Rope1_Seg01]
5 -0.000032 -0.000064 0.000128 109.784546 4.487240 -167.743347 0.000147
6 -0.000031 -0.000061 0.000122 112.919693 9.228614 -165.308228 0.000140
[Rope1_Seg02]
5 139.999863 -0.000179 0.000000 2.930490 -5.506288 0.365916 139.999863
6 139.999863 -0.000179 0.000000 3.110842 -7.858702 2.748882 139.999863
[Rope1_Seg03]
5 139.999924 0.000060 -0.000060 3.386526 -8.317853 0.990631 139.999924
6 139.999924 0.000060 -0.000060 2.408134 -9.787910 4.091064 139.999924
[Rope1_Seg04]
5 139.999924 -0.000060 -0.000119 2.885953 -12.235975 2.802388 139.999924
6 139.999924 -0.000060 -0.000119 0.480162 -8.894890 6.297357 139.999924
[Rope1_Seg05]
5 139.999832 0.000119 -0.000060 1.175245 -18.387707 5.109234 139.999832
6 139.999832 0.000119 -0.000060 0.337452 -10.141931 5.286332 139.999832
[Rope1_Seg06]
5 139.999954 0.000119 -0.000060 -5.366225 -32.572254 5.444665 139.999954
6 139.999954 0.000119 -0.000060 -1.654779 -23.020193 4.115047 139.999954
[Rope1_Seg07]
5 139.999985 0.000060 0.000000 -10.322160 -22.870579 1.629034 139.999985
6 139.999985 0.000060 0.000000 -8.868164 -27.152737 3.524947 139.999985
[Rope1_Seg09]
5 121.602913 0.000119 -0.000089 -89.793175 -1.359789 0.847147 121.602913
6 121.602913 0.000119 -0.000089 -89.793175 -1.359789 0.847147 121.602913
[L_mid_hand01]
5 103.859421 1.038730 8.195221 130.095490 -67.358856 -38.382183 104.187431
6 103.859421 1.038730 8.195221 130.544373 -67.584534 -38.866943 104.187431
[L_mid_hand02]
5 105.572853 -4.139662 -10.864139 -168.652405 43.348949 -73.107704 106.211075
6 105.572853 -4.139662 -10.864139 -168.923172 43.409309 -73.498886 106.211075
[L_mid_hand03]
5 104.641464 17.579376 -3.913581 -6.108395 17.779198 74.588531 106.179977
6 104.641464 17.579376 -3.913581 -6.012627 17.808174 74.893669 106.179977
[null_rope02_connect]
5 328.732849 0.000179 -0.000119 -111.049072 66.279930 25.518753 328.732849
6 328.732849 0.000179 -0.000119 -114.278275 64.417564 29.238873 328.732849
[Rope2_Seg01]
5 0.000095 0.000153 0.000012 -12.102686 1.852673 -29.414463 0.000180
6 0.000095 0.000153 0.000015 -3.812654 -0.964086 -31.591797 0.000181
[Rope2_Seg02]
5 139.999741 -0.000060 -0.000119 -26.564135 3.234703 12.351544 139.999756
6 139.999741 -0.000060 -0.000119 -26.569551 4.992404 11.200768 139.999756
[Rope2_Seg03]
5 140.000107 0.000030 0.000000 -21.204731 -3.972818 19.165592 140.000107
6 140.000107 0.000030 0.000000 -25.065231 -0.701003 19.496843 140.000107
[Rope2_Seg04]
5 139.999802 0.000000 -0.000060 -11.622159 -10.330998 19.478178 139.999802
6 139.999802 0.000000 -0.000060 -15.377754 -8.521437 22.729204 139.999802
[Rope2_Seg05]
5 139.999985 -0.000060 0.000119 -3.636085 -12.056112 12.143980 139.999985
6 139.999985 -0.000060 0.000119 -3.147549 -14.109962 11.170398 139.999985
[Rope2_Seg06]
5 139.999893 -0.000030 -0.000119 -2.126858 -17.875103 11.892641 139.999893
6 139.999893 -0.000030 -0.000119 -0.936090 -20.061342 6.262577 139.999893
[Rope2_Seg07]
5 139.999893 0.000060 -0.000060 -0.593842 -15.369835 10.215904 139.999893
6 139.999893 0.000060 -0.000060 -0.927141 -14.424829 6.228885 139.999893
[Rope2_Seg09]
5 121.338966 0.000089 -0.000060 33.793236 -1.359788 -0.847141 121.338966
6 121.338966 0.000089 -0.000060 33.793236 -1.359788 -0.847141 121.338966
[R_mid_hand01]
5 104.680779 11.144459 -10.335981 -16.480762 45.159000 70.079010 105.778534
6 104.680779 11.144459 -10.335981 -16.212063 45.237247 70.462852 105.778534
[R_mid_hand02]
5 104.070427 2.443552 8.231699 49.518703 -67.538940 38.801071 104.424065
6 104.070427 2.443552 8.231699 49.067368 -67.749771 39.286453 104.424065
[R_mid_hand03]
5 106.028137 -11.221827 -5.996406 -177.019348 15.538846 -76.294624 106.788818
6 106.028137 -11.221827 -5.996406 -177.101105 15.551026 -76.585571 106.788818
[spine02]
5 129.756927 0.001550 0.000119 -0.857372 -4.252287 4.459203 129.756927
6 129.756927 0.001550 0.000119 -0.809049 -4.302587 3.784292 129.756927
[spine03]
5 78.613922 0.084711 -4.898938 1.149122 4.655441 5.668902 78.766457
6 78.613930 0.084564 -4.898941 1.184868 4.719588 6.092470 78.766472
[pelvis]
5 169.435242 0.051022 0.000000 0.014999 0.022512 -7.798754 169.435257
6 169.435242 0.051022 0.000000 0.018304 0.052322 -6.946327 169.435257
[null_rope03_connect]
5 -1.257226 -2.466202 137.391083 -128.519669 -85.035248 -141.791245 137.418976
6 -1.257226 -2.466202 137.391083 -124.193901 -85.534279 -147.696426 137.418976
[null_rope04_connect]
5 -1.259640 -2.480268 -137.844437 -128.519669 -85.035248 -141.791245 137.872513
6 -1.259640 -2.480268 -137.844437 -124.193901 -85.534279 -147.696426 137.872513
[Rope3_Seg01]
5 -0.000037 0.000000 -0.000024 -141.835312 -33.506813 -61.019550 0.000044
6 -0.000036 0.000000 -0.000031 -133.838181 -31.620726 -75.872307 0.000047
[Rope3_Seg02]
5 139.999924 -0.000119 0.000060 -6.211463 1.851016 -16.056313 139.999924
6 139.999924 -0.000119 0.000060 -1.854436 -4.313472 -19.752306 139.999924
[Rope3_Seg03]
5 139.999924 -0.000119 0.000119 -18.538990 5.873710 -22.770006 139.999924
6 139.999924 -0.000119 0.000119 -7.587796 -5.059030 -23.728067 139.999924
[Rope3_Seg04]
5 139.999924 0.000119 0.000000 -25.505213 12.147170 -16.554983 139.999924
6 139.999924 0.000119 0.000000 -11.141996 -2.751233 -14.984892 139.999924
[Rope3_Seg05]
5 139.999924 -0.000238 0.000060 -29.751987 13.827294 -17.264229 139.999924
6 139.999924 -0.000238 0.000060 -38.567749 6.031668 -15.481285 139.999924
[Rope3_Seg06]
5 139.999893 -0.000119 -0.000060 -27.948309 20.269239 -12.519437 139.999893
6 139.999893 -0.000119 -0.000060 -48.050533 27.153082 -12.496710 139.999893
[Rope3_Seg07]
5 139.999771 0.000060 -0.000119 -7.822089 11.918424 -0.103369 139.999771
6 139.999771 0.000060 -0.000119 -7.822221 18.887836 7.405282 139.999771
[Rope3_Seg08]
5 139.999985 -0.000060 0.000000 -2.584930 6.078214 0.820516 139.999985
6 139.999985 -0.000060 0.000000 -1.424773 7.931545 4.326463 139.999985
[Rope3_Seg09]
5 90.185997 -0.000179 -0.000060 89.793228 -1.359877 -0.847183 90.185997
6 90.185997 -0.000179 -0.000060 89.793228 -1.359877 -0.847183 90.185997
[R_rear_hand01]
5 103.366196 -6.073594 -10.757982 -177.574921 24.553762 -73.582504 104.101845
6 103.366196 -6.073594 -10.757982 -177.714203 24.565960 -73.910950 104.101845
[R_rear_hand02]
5 100.509819 12.039542 -7.992327 -13.089580 36.801193 71.803032 101.543350
6 100.509819 12.039542 -7.992327 -12.874829 36.868488 72.167213 101.543350
[R_rear_hand03]
5 101.539970 5.215704 5.435467 71.770485 -71.527267 21.210228 101.819031
6 101.539970 5.215704 5.435467 71.484581 -71.816628 21.513813 101.819031
[Rope4_Seg01]
5 -0.000037 0.000000 -0.000024 75.946114 -41.851929 -136.380341 0.000044
6 -0.000036 0.000000 -0.000031 73.573448 -42.435280 -132.702682 0.000047
[Rope4_Seg02]
5 139.999985 0.000060 0.000119 13.336640 -20.302298 4.956827 139.999985
6 139.999985 0.000060 0.000119 11.425880 -22.898977 0.646615 139.999985
[Rope4_Seg03]
5 139.999924 0.000000 -0.000238 42.640732 -27.437840 19.902184 139.999924
6 139.999924 0.000000 -0.000238 48.139603 -29.085588 12.347336 139.999924
[Rope4_Seg04]
5 139.999985 0.000000 0.000119 33.949524 -11.194433 30.367903 139.999985
6 139.999985 0.000000 0.000119 42.124641 -12.902811 21.804741 139.999985
[Rope4_Seg05]
5 139.999802 -0.000060 -0.000119 16.939804 0.282977 27.646309 139.999802
6 139.999802 -0.000060 -0.000119 29.287312 -5.000669 29.018137 139.999802
[Rope4_Seg06]
5 139.999924 0.000000 0.000060 3.580161 3.831369 9.836786 139.999924
6 139.999924 0.000000 0.000060 7.279069 5.510886 13.134712 139.999924
[Rope4_Seg07]
5 139.999802 0.000000 0.000000 1.379150 2.381866 5.043355 139.999802
6 139.999802 0.000000 0.000000 2.314463 3.739399 6.024042 139.999802
[Rope4_Seg08]
5 139.999924 0.000000 0.000119 -0.930866 1.359515 2.716229 139.999924
6 139.999924 0.000000 0.000119 -0.563229 2.129910 3.152470 139.999924
[Rope4_Seg09]
5 90.185791 0.000060 0.000060 -135.617828 2.228885 0.850567 90.185791
6 90.185791 0.000060 0.000060 -135.617828 2.228885 0.850567 90.185791
[L_rear_hand01]
5 101.696655 -8.392275 -7.654577 -13.100018 -36.799313 108.206543 102.329041
6 101.696655 -8.392275 -7.654577 -12.874829 -36.868488 107.832764 102.329041
[L_rear_hand02]
5 102.726799 -1.568258 5.773216 71.770462 71.527245 158.789749 102.900848
6 102.726799 -1.568258 5.773216 71.484581 71.816628 158.486160 102.900848
[L_rear_hand03]
5 104.552910 9.721220 -10.420293 -177.573471 -24.553633 -106.424133 105.519653
6 104.552910 9.721220 -10.420293 -177.714203 -24.565960 -106.089035 105.519653
